<mxfile host="app.diagrams.net" modified="2021-11-26T05:16:16.231Z" agent="5.0 (Windows NT 10.0; Win64; x64) AppleWebKit/537.36 (KHTML, like Gecko) Chrome/96.0.4664.45 Safari/537.36" etag="uiOw314s2RmlY7sdbIaT" version="15.8.3" type="github">
  <diagram id="C5RBs43oDa-KdzZeNtuy" name="Page-1">
    <mxGraphModel dx="981" dy="689" grid="1" gridSize="10" guides="1" tooltips="1" connect="1" arrows="1" fold="1" page="1" pageScale="1" pageWidth="5000" pageHeight="5000" math="0" shadow="0">
      <root>
        <mxCell id="WIyWlLk6GJQsqaUBKTNV-0" />
        <mxCell id="WIyWlLk6GJQsqaUBKTNV-1" parent="WIyWlLk6GJQsqaUBKTNV-0" />
        <mxCell id="w5kWeoBQfcNdfBbSgqj2-48" style="edgeStyle=orthogonalEdgeStyle;rounded=0;orthogonalLoop=1;jettySize=auto;html=1;endArrow=diamond;endFill=0;exitX=0.002;exitY=0.046;exitDx=0;exitDy=0;exitPerimeter=0;startArrow=classic;startFill=1;" edge="1" parent="WIyWlLk6GJQsqaUBKTNV-1" source="w5kWeoBQfcNdfBbSgqj2-43" target="w5kWeoBQfcNdfBbSgqj2-0">
          <mxGeometry relative="1" as="geometry" />
        </mxCell>
        <mxCell id="w5kWeoBQfcNdfBbSgqj2-0" value="Model" style="swimlane;fontStyle=0;align=center;verticalAlign=top;childLayout=stackLayout;horizontal=1;startSize=26;horizontalStack=0;resizeParent=1;resizeLast=0;collapsible=1;marginBottom=0;rounded=0;shadow=0;strokeWidth=1;" vertex="1" parent="WIyWlLk6GJQsqaUBKTNV-1">
          <mxGeometry x="750" y="550" width="240" height="338" as="geometry">
            <mxRectangle x="340" y="380" width="170" height="26" as="alternateBounds" />
          </mxGeometry>
        </mxCell>
        <mxCell id="w5kWeoBQfcNdfBbSgqj2-1" value="# view: View&#xa;# controller: Controller&#xa;# state: State" style="text;align=left;verticalAlign=top;spacingLeft=4;spacingRight=4;overflow=hidden;rotatable=0;points=[[0,0.5],[1,0.5]];portConstraint=eastwest;" vertex="1" parent="w5kWeoBQfcNdfBbSgqj2-0">
          <mxGeometry y="26" width="240" height="64" as="geometry" />
        </mxCell>
        <mxCell id="w5kWeoBQfcNdfBbSgqj2-2" value="" style="line;html=1;strokeWidth=1;align=left;verticalAlign=middle;spacingTop=-1;spacingLeft=3;spacingRight=3;rotatable=0;labelPosition=right;points=[];portConstraint=eastwest;" vertex="1" parent="w5kWeoBQfcNdfBbSgqj2-0">
          <mxGeometry y="90" width="240" height="10" as="geometry" />
        </mxCell>
        <mxCell id="w5kWeoBQfcNdfBbSgqj2-5" value="#addView(View): adds a view&lt;br&gt;#addController(Controller): adds a &lt;br&gt;&amp;nbsp;&amp;nbsp;&amp;nbsp;&amp;nbsp;controller&lt;br&gt;#getInput(): wrapper to call getInput&lt;br&gt;&amp;nbsp;&amp;nbsp;&amp;nbsp;&amp;nbsp;method on controller&lt;br&gt;&lt;i&gt;#&lt;/i&gt;updateView(State): update view with&lt;br&gt;&lt;span style=&quot;white-space: pre&quot;&gt;	&lt;/span&gt;state. Calls render state.&lt;br&gt;#&lt;i&gt;update&lt;/i&gt;(State, Input): protected &lt;br&gt;&lt;span style=&quot;white-space: pre&quot;&gt;	&lt;/span&gt;but virtual (function templating)&lt;br&gt;+go(): go is public but non-virtual.&lt;br&gt;&lt;span style=&quot;white-space: pre&quot;&gt;	&lt;/span&gt;while True:&lt;br&gt;&lt;span style=&quot;white-space: pre&quot;&gt;	&lt;/span&gt;&lt;span style=&quot;white-space: pre&quot;&gt;	&lt;/span&gt;Input = getInput()&lt;br&gt;&lt;span style=&quot;white-space: pre&quot;&gt;	&lt;/span&gt;&lt;span style=&quot;white-space: pre&quot;&gt;	&lt;/span&gt;state= update(state, Input)&lt;br&gt;&lt;span style=&quot;white-space: pre&quot;&gt;	&lt;/span&gt;&lt;span style=&quot;white-space: pre&quot;&gt;	&lt;/span&gt;updateView(State)&lt;br&gt;&lt;span style=&quot;white-space: pre&quot;&gt;	&lt;/span&gt;&lt;span style=&quot;white-space: pre&quot;&gt;	&lt;/span&gt;&lt;br&gt;&lt;span style=&quot;white-space: pre&quot;&gt;	&lt;/span&gt;" style="text;align=left;verticalAlign=top;spacingLeft=4;spacingRight=4;overflow=hidden;rotatable=0;points=[[0,0.5],[1,0.5]];portConstraint=eastwest;fontStyle=0;html=1;" vertex="1" parent="w5kWeoBQfcNdfBbSgqj2-0">
          <mxGeometry y="100" width="240" height="218" as="geometry" />
        </mxCell>
        <mxCell id="w5kWeoBQfcNdfBbSgqj2-19" value="View" style="swimlane;fontStyle=0;align=center;verticalAlign=top;childLayout=stackLayout;horizontal=1;startSize=26;horizontalStack=0;resizeParent=1;resizeLast=0;collapsible=1;marginBottom=0;rounded=0;shadow=0;strokeWidth=1;" vertex="1" parent="WIyWlLk6GJQsqaUBKTNV-1">
          <mxGeometry x="380" y="630" width="240" height="70" as="geometry">
            <mxRectangle x="340" y="380" width="170" height="26" as="alternateBounds" />
          </mxGeometry>
        </mxCell>
        <mxCell id="w5kWeoBQfcNdfBbSgqj2-21" value="" style="line;html=1;strokeWidth=1;align=left;verticalAlign=middle;spacingTop=-1;spacingLeft=3;spacingRight=3;rotatable=0;labelPosition=right;points=[];portConstraint=eastwest;" vertex="1" parent="w5kWeoBQfcNdfBbSgqj2-19">
          <mxGeometry y="26" width="240" height="10" as="geometry" />
        </mxCell>
        <mxCell id="w5kWeoBQfcNdfBbSgqj2-22" value="+render&lt;span style=&quot;font-style: normal&quot;&gt;(State)&lt;/span&gt;" style="text;align=left;verticalAlign=top;spacingLeft=4;spacingRight=4;overflow=hidden;rotatable=0;points=[[0,0.5],[1,0.5]];portConstraint=eastwest;fontStyle=2;html=1;" vertex="1" parent="w5kWeoBQfcNdfBbSgqj2-19">
          <mxGeometry y="36" width="240" height="24" as="geometry" />
        </mxCell>
        <mxCell id="w5kWeoBQfcNdfBbSgqj2-23" value="Controller" style="swimlane;fontStyle=0;align=center;verticalAlign=top;childLayout=stackLayout;horizontal=1;startSize=26;horizontalStack=0;resizeParent=1;resizeLast=0;collapsible=1;marginBottom=0;rounded=0;shadow=0;strokeWidth=1;" vertex="1" parent="WIyWlLk6GJQsqaUBKTNV-1">
          <mxGeometry x="1090" y="630" width="240" height="70" as="geometry">
            <mxRectangle x="340" y="380" width="170" height="26" as="alternateBounds" />
          </mxGeometry>
        </mxCell>
        <mxCell id="w5kWeoBQfcNdfBbSgqj2-24" value="" style="line;html=1;strokeWidth=1;align=left;verticalAlign=middle;spacingTop=-1;spacingLeft=3;spacingRight=3;rotatable=0;labelPosition=right;points=[];portConstraint=eastwest;" vertex="1" parent="w5kWeoBQfcNdfBbSgqj2-23">
          <mxGeometry y="26" width="240" height="10" as="geometry" />
        </mxCell>
        <mxCell id="w5kWeoBQfcNdfBbSgqj2-25" value="&lt;span style=&quot;font-style: normal&quot;&gt;+&lt;/span&gt;getInput&lt;span style=&quot;font-style: normal&quot;&gt;(): returns input&lt;/span&gt;" style="text;align=left;verticalAlign=top;spacingLeft=4;spacingRight=4;overflow=hidden;rotatable=0;points=[[0,0.5],[1,0.5]];portConstraint=eastwest;fontStyle=2;html=1;" vertex="1" parent="w5kWeoBQfcNdfBbSgqj2-23">
          <mxGeometry y="36" width="240" height="24" as="geometry" />
        </mxCell>
        <mxCell id="w5kWeoBQfcNdfBbSgqj2-26" value="TermKeyboard" style="swimlane;fontStyle=0;align=center;verticalAlign=top;childLayout=stackLayout;horizontal=1;startSize=26;horizontalStack=0;resizeParent=1;resizeLast=0;collapsible=1;marginBottom=0;rounded=0;shadow=0;strokeWidth=1;" vertex="1" parent="WIyWlLk6GJQsqaUBKTNV-1">
          <mxGeometry x="1451" y="610" width="240" height="124" as="geometry">
            <mxRectangle x="1450" y="610" width="170" height="26" as="alternateBounds" />
          </mxGeometry>
        </mxCell>
        <mxCell id="w5kWeoBQfcNdfBbSgqj2-27" value="" style="line;html=1;strokeWidth=1;align=left;verticalAlign=middle;spacingTop=-1;spacingLeft=3;spacingRight=3;rotatable=0;labelPosition=right;points=[];portConstraint=eastwest;" vertex="1" parent="w5kWeoBQfcNdfBbSgqj2-26">
          <mxGeometry y="26" width="240" height="14" as="geometry" />
        </mxCell>
        <mxCell id="w5kWeoBQfcNdfBbSgqj2-28" value="+ getInput(): calls getchar() in halfdelay(5)&lt;br&gt;&lt;span style=&quot;white-space: pre&quot;&gt;	&lt;/span&gt;mode and returns the char as 0 if&lt;br&gt;&lt;span style=&quot;white-space: pre&quot;&gt;	&lt;/span&gt;no input is given." style="text;align=left;verticalAlign=top;spacingLeft=4;spacingRight=4;overflow=hidden;rotatable=0;points=[[0,0.5],[1,0.5]];portConstraint=eastwest;html=1;" vertex="1" parent="w5kWeoBQfcNdfBbSgqj2-26">
          <mxGeometry y="40" width="240" height="84" as="geometry" />
        </mxCell>
        <mxCell id="w5kWeoBQfcNdfBbSgqj2-32" style="edgeStyle=orthogonalEdgeStyle;rounded=0;orthogonalLoop=1;jettySize=auto;html=1;exitX=1.03;exitY=0.224;exitDx=0;exitDy=0;entryX=0;entryY=0.5;entryDx=0;entryDy=0;endArrow=diamond;endFill=0;exitPerimeter=0;startArrow=classic;startFill=1;" edge="1" parent="WIyWlLk6GJQsqaUBKTNV-1" source="w5kWeoBQfcNdfBbSgqj2-19" target="w5kWeoBQfcNdfBbSgqj2-1">
          <mxGeometry relative="1" as="geometry" />
        </mxCell>
        <mxCell id="w5kWeoBQfcNdfBbSgqj2-33" style="edgeStyle=orthogonalEdgeStyle;rounded=0;orthogonalLoop=1;jettySize=auto;html=1;endArrow=diamond;endFill=0;exitX=0;exitY=0.25;exitDx=0;exitDy=0;startArrow=classic;startFill=1;" edge="1" parent="WIyWlLk6GJQsqaUBKTNV-1" source="w5kWeoBQfcNdfBbSgqj2-23" target="w5kWeoBQfcNdfBbSgqj2-1">
          <mxGeometry relative="1" as="geometry" />
        </mxCell>
        <mxCell id="w5kWeoBQfcNdfBbSgqj2-35" style="edgeStyle=orthogonalEdgeStyle;rounded=0;orthogonalLoop=1;jettySize=auto;html=1;entryX=1;entryY=0.25;entryDx=0;entryDy=0;endArrow=block;endFill=0;exitX=0;exitY=0.087;exitDx=0;exitDy=0;exitPerimeter=0;" edge="1" parent="WIyWlLk6GJQsqaUBKTNV-1" source="w5kWeoBQfcNdfBbSgqj2-26" target="w5kWeoBQfcNdfBbSgqj2-23">
          <mxGeometry relative="1" as="geometry" />
        </mxCell>
        <mxCell id="w5kWeoBQfcNdfBbSgqj2-42" style="edgeStyle=orthogonalEdgeStyle;rounded=0;orthogonalLoop=1;jettySize=auto;html=1;entryX=0;entryY=0.25;entryDx=0;entryDy=0;endArrow=block;endFill=0;" edge="1" parent="WIyWlLk6GJQsqaUBKTNV-1" source="w5kWeoBQfcNdfBbSgqj2-38" target="w5kWeoBQfcNdfBbSgqj2-19">
          <mxGeometry relative="1" as="geometry" />
        </mxCell>
        <mxCell id="w5kWeoBQfcNdfBbSgqj2-38" value="TermView" style="swimlane;fontStyle=0;align=center;verticalAlign=top;childLayout=stackLayout;horizontal=1;startSize=26;horizontalStack=0;resizeParent=1;resizeLast=0;collapsible=1;marginBottom=0;rounded=0;shadow=0;strokeWidth=1;html=1;" vertex="1" parent="WIyWlLk6GJQsqaUBKTNV-1">
          <mxGeometry x="190" y="740" width="240" height="230" as="geometry">
            <mxRectangle x="1450" y="610" width="170" height="26" as="alternateBounds" />
          </mxGeometry>
        </mxCell>
        <mxCell id="w5kWeoBQfcNdfBbSgqj2-40" value="" style="line;html=1;strokeWidth=1;align=left;verticalAlign=middle;spacingTop=-1;spacingLeft=3;spacingRight=3;rotatable=0;labelPosition=right;points=[];portConstraint=eastwest;" vertex="1" parent="w5kWeoBQfcNdfBbSgqj2-38">
          <mxGeometry y="26" width="240" height="14" as="geometry" />
        </mxCell>
        <mxCell id="w5kWeoBQfcNdfBbSgqj2-41" value="&lt;span style=&quot;font-style: normal&quot;&gt;#&lt;/span&gt;renderStatus(State): User defined&lt;br&gt;&lt;span style=&quot;font-style: normal&quot;&gt;&lt;span style=&quot;white-space: pre&quot;&gt;	&lt;/span&gt;function to render the text in the&lt;br&gt;&lt;span style=&quot;white-space: pre&quot;&gt;	&lt;/span&gt;status lines.&amp;nbsp;&lt;br&gt;+render(State): renders background first, &lt;br&gt;&amp;nbsp;&amp;nbsp;&amp;nbsp;&amp;nbsp;then&amp;nbsp;renders gameobjects, &lt;br&gt;&amp;nbsp;&amp;nbsp;&amp;nbsp;&amp;nbsp;then renders the player. Finally, calls&lt;br&gt;&amp;nbsp; &amp;nbsp; render on the State itself and renders the&lt;br&gt;&amp;nbsp; &amp;nbsp; status&lt;br&gt;&lt;/span&gt;" style="text;align=left;verticalAlign=top;spacingLeft=4;spacingRight=4;overflow=hidden;rotatable=0;points=[[0,0.5],[1,0.5]];portConstraint=eastwest;fontStyle=2;html=1;" vertex="1" parent="w5kWeoBQfcNdfBbSgqj2-38">
          <mxGeometry y="40" width="240" height="150" as="geometry" />
        </mxCell>
        <mxCell id="w5kWeoBQfcNdfBbSgqj2-78" style="edgeStyle=orthogonalEdgeStyle;rounded=0;orthogonalLoop=1;jettySize=auto;html=1;endArrow=diamond;endFill=0;startArrow=classic;startFill=1;exitX=0.5;exitY=0;exitDx=0;exitDy=0;entryX=1;entryY=0.736;entryDx=0;entryDy=0;entryPerimeter=0;" edge="1" parent="WIyWlLk6GJQsqaUBKTNV-1" source="w5kWeoBQfcNdfBbSgqj2-75" target="w5kWeoBQfcNdfBbSgqj2-49">
          <mxGeometry relative="1" as="geometry" />
        </mxCell>
        <mxCell id="w5kWeoBQfcNdfBbSgqj2-43" value="State" style="swimlane;fontStyle=0;align=center;verticalAlign=top;childLayout=stackLayout;horizontal=1;startSize=26;horizontalStack=0;resizeParent=1;resizeLast=0;collapsible=1;marginBottom=0;rounded=0;shadow=0;strokeWidth=1;" vertex="1" parent="WIyWlLk6GJQsqaUBKTNV-1">
          <mxGeometry x="900" y="1010" width="240" height="160" as="geometry">
            <mxRectangle x="1450" y="610" width="170" height="26" as="alternateBounds" />
          </mxGeometry>
        </mxCell>
        <mxCell id="w5kWeoBQfcNdfBbSgqj2-49" value="- environment: Environment&#xa;- entities: List of GameObjects&#xa;- globals : Hashmap&#xa;- player: Player" style="text;align=left;verticalAlign=top;spacingLeft=4;spacingRight=4;overflow=hidden;rotatable=0;points=[[0,0.5],[1,0.5]];portConstraint=eastwest;" vertex="1" parent="w5kWeoBQfcNdfBbSgqj2-43">
          <mxGeometry y="26" width="240" height="64" as="geometry" />
        </mxCell>
        <mxCell id="w5kWeoBQfcNdfBbSgqj2-45" value="" style="line;html=1;strokeWidth=1;align=left;verticalAlign=middle;spacingTop=-1;spacingLeft=3;spacingRight=3;rotatable=0;labelPosition=right;points=[];portConstraint=eastwest;" vertex="1" parent="w5kWeoBQfcNdfBbSgqj2-43">
          <mxGeometry y="90" width="240" height="14" as="geometry" />
        </mxCell>
        <mxCell id="w5kWeoBQfcNdfBbSgqj2-67" value="+ renderStatus&lt;span style=&quot;font-style: normal&quot;&gt;(): Subclass will overload &lt;br&gt;&lt;span style=&quot;white-space: pre&quot;&gt;	&lt;/span&gt;render to return a string to be &lt;br&gt;&lt;span style=&quot;white-space: pre&quot;&gt;	&lt;/span&gt;rendered in the status lines.&lt;br&gt;&lt;/span&gt;" style="text;align=left;verticalAlign=top;spacingLeft=4;spacingRight=4;overflow=hidden;rotatable=0;points=[[0,0.5],[1,0.5]];portConstraint=eastwest;fontStyle=2;html=1;" vertex="1" parent="w5kWeoBQfcNdfBbSgqj2-43">
          <mxGeometry y="104" width="240" height="56" as="geometry" />
        </mxCell>
        <mxCell id="w5kWeoBQfcNdfBbSgqj2-51" value="Player" style="swimlane;fontStyle=0;align=center;verticalAlign=top;childLayout=stackLayout;horizontal=1;startSize=26;horizontalStack=0;resizeParent=1;resizeLast=0;collapsible=1;marginBottom=0;rounded=0;shadow=0;strokeWidth=1;" vertex="1" parent="WIyWlLk6GJQsqaUBKTNV-1">
          <mxGeometry x="290" y="1010" width="240" height="188" as="geometry">
            <mxRectangle x="1450" y="610" width="170" height="26" as="alternateBounds" />
          </mxGeometry>
        </mxCell>
        <mxCell id="w5kWeoBQfcNdfBbSgqj2-52" value="- status: Hashmap&#xa;- position: Tuple&#xa;- bitmap: Bitmap&#xa;# state: Concrete State" style="text;align=left;verticalAlign=top;spacingLeft=4;spacingRight=4;overflow=hidden;rotatable=0;points=[[0,0.5],[1,0.5]];portConstraint=eastwest;" vertex="1" parent="w5kWeoBQfcNdfBbSgqj2-51">
          <mxGeometry y="26" width="240" height="74" as="geometry" />
        </mxCell>
        <mxCell id="w5kWeoBQfcNdfBbSgqj2-53" value="" style="line;html=1;strokeWidth=1;align=left;verticalAlign=middle;spacingTop=-1;spacingLeft=3;spacingRight=3;rotatable=0;labelPosition=right;points=[];portConstraint=eastwest;" vertex="1" parent="w5kWeoBQfcNdfBbSgqj2-51">
          <mxGeometry y="100" width="240" height="14" as="geometry" />
        </mxCell>
        <mxCell id="w5kWeoBQfcNdfBbSgqj2-66" value="+ render(): " style="text;align=left;verticalAlign=top;spacingLeft=4;spacingRight=4;overflow=hidden;rotatable=0;points=[[0,0.5],[1,0.5]];portConstraint=eastwest;" vertex="1" parent="w5kWeoBQfcNdfBbSgqj2-51">
          <mxGeometry y="114" width="240" height="74" as="geometry" />
        </mxCell>
        <mxCell id="w5kWeoBQfcNdfBbSgqj2-57" value="Environment" style="swimlane;fontStyle=0;align=center;verticalAlign=top;childLayout=stackLayout;horizontal=1;startSize=26;horizontalStack=0;resizeParent=1;resizeLast=0;collapsible=1;marginBottom=0;rounded=0;shadow=0;strokeWidth=1;" vertex="1" parent="WIyWlLk6GJQsqaUBKTNV-1">
          <mxGeometry x="590" y="1260" width="240" height="120" as="geometry">
            <mxRectangle x="1450" y="610" width="170" height="26" as="alternateBounds" />
          </mxGeometry>
        </mxCell>
        <mxCell id="w5kWeoBQfcNdfBbSgqj2-103" value="# state: Concrete State" style="text;align=left;verticalAlign=top;spacingLeft=4;spacingRight=4;overflow=hidden;rotatable=0;points=[[0,0.5],[1,0.5]];portConstraint=eastwest;" vertex="1" parent="w5kWeoBQfcNdfBbSgqj2-57">
          <mxGeometry y="26" width="240" height="30" as="geometry" />
        </mxCell>
        <mxCell id="w5kWeoBQfcNdfBbSgqj2-59" value="" style="line;html=1;strokeWidth=1;align=left;verticalAlign=middle;spacingTop=-1;spacingLeft=3;spacingRight=3;rotatable=0;labelPosition=right;points=[];portConstraint=eastwest;" vertex="1" parent="w5kWeoBQfcNdfBbSgqj2-57">
          <mxGeometry y="56" width="240" height="14" as="geometry" />
        </mxCell>
        <mxCell id="w5kWeoBQfcNdfBbSgqj2-94" value="+ render(): " style="text;align=left;verticalAlign=top;spacingLeft=4;spacingRight=4;overflow=hidden;rotatable=0;points=[[0,0.5],[1,0.5]];portConstraint=eastwest;" vertex="1" parent="w5kWeoBQfcNdfBbSgqj2-57">
          <mxGeometry y="70" width="240" height="30" as="geometry" />
        </mxCell>
        <mxCell id="w5kWeoBQfcNdfBbSgqj2-71" style="edgeStyle=orthogonalEdgeStyle;rounded=0;orthogonalLoop=1;jettySize=auto;html=1;endArrow=diamond;endFill=0;startArrow=classic;startFill=1;" edge="1" parent="WIyWlLk6GJQsqaUBKTNV-1" source="w5kWeoBQfcNdfBbSgqj2-52">
          <mxGeometry relative="1" as="geometry">
            <mxPoint x="900" y="1052" as="targetPoint" />
          </mxGeometry>
        </mxCell>
        <mxCell id="w5kWeoBQfcNdfBbSgqj2-72" style="edgeStyle=orthogonalEdgeStyle;rounded=0;orthogonalLoop=1;jettySize=auto;html=1;endArrow=diamond;endFill=0;exitX=0.5;exitY=0;exitDx=0;exitDy=0;startArrow=classic;startFill=1;entryX=0;entryY=0.5;entryDx=0;entryDy=0;" edge="1" parent="WIyWlLk6GJQsqaUBKTNV-1" source="w5kWeoBQfcNdfBbSgqj2-57" target="w5kWeoBQfcNdfBbSgqj2-49">
          <mxGeometry relative="1" as="geometry">
            <mxPoint x="900" y="1085" as="targetPoint" />
            <Array as="points">
              <mxPoint x="710" y="1130" />
              <mxPoint x="860" y="1130" />
              <mxPoint x="860" y="1068" />
            </Array>
          </mxGeometry>
        </mxCell>
        <mxCell id="w5kWeoBQfcNdfBbSgqj2-75" value="GameObject" style="swimlane;fontStyle=0;align=center;verticalAlign=top;childLayout=stackLayout;horizontal=1;startSize=26;horizontalStack=0;resizeParent=1;resizeLast=0;collapsible=1;marginBottom=0;rounded=0;shadow=0;strokeWidth=1;" vertex="1" parent="WIyWlLk6GJQsqaUBKTNV-1">
          <mxGeometry x="1530" y="1180" width="240" height="168" as="geometry">
            <mxRectangle x="1450" y="610" width="170" height="26" as="alternateBounds" />
          </mxGeometry>
        </mxCell>
        <mxCell id="w5kWeoBQfcNdfBbSgqj2-76" value="# id : Integer&#xa;# type: String&#xa;# height: Integer&#xa;# state : Concrete State" style="text;align=left;verticalAlign=top;spacingLeft=4;spacingRight=4;overflow=hidden;rotatable=0;points=[[0,0.5],[1,0.5]];portConstraint=eastwest;" vertex="1" parent="w5kWeoBQfcNdfBbSgqj2-75">
          <mxGeometry y="26" width="240" height="84" as="geometry" />
        </mxCell>
        <mxCell id="w5kWeoBQfcNdfBbSgqj2-77" value="" style="line;html=1;strokeWidth=1;align=left;verticalAlign=middle;spacingTop=-1;spacingLeft=3;spacingRight=3;rotatable=0;labelPosition=right;points=[];portConstraint=eastwest;" vertex="1" parent="w5kWeoBQfcNdfBbSgqj2-75">
          <mxGeometry y="110" width="240" height="14" as="geometry" />
        </mxCell>
        <mxCell id="w5kWeoBQfcNdfBbSgqj2-104" value="+ render()" style="text;align=left;verticalAlign=top;spacingLeft=4;spacingRight=4;overflow=hidden;rotatable=0;points=[[0,0.5],[1,0.5]];portConstraint=eastwest;" vertex="1" parent="w5kWeoBQfcNdfBbSgqj2-75">
          <mxGeometry y="124" width="240" height="44" as="geometry" />
        </mxCell>
        <mxCell id="w5kWeoBQfcNdfBbSgqj2-81" value="Concrete State" style="swimlane;fontStyle=0;align=center;verticalAlign=top;childLayout=stackLayout;horizontal=1;startSize=26;horizontalStack=0;resizeParent=1;resizeLast=0;collapsible=1;marginBottom=0;rounded=0;shadow=0;strokeWidth=1;" vertex="1" parent="WIyWlLk6GJQsqaUBKTNV-1">
          <mxGeometry x="850" y="1600" width="240" height="40" as="geometry">
            <mxRectangle x="1450" y="610" width="170" height="26" as="alternateBounds" />
          </mxGeometry>
        </mxCell>
        <mxCell id="w5kWeoBQfcNdfBbSgqj2-83" value="" style="line;html=1;strokeWidth=1;align=left;verticalAlign=middle;spacingTop=-1;spacingLeft=3;spacingRight=3;rotatable=0;labelPosition=right;points=[];portConstraint=eastwest;" vertex="1" parent="w5kWeoBQfcNdfBbSgqj2-81">
          <mxGeometry y="26" width="240" height="14" as="geometry" />
        </mxCell>
        <mxCell id="w5kWeoBQfcNdfBbSgqj2-85" style="edgeStyle=orthogonalEdgeStyle;rounded=0;orthogonalLoop=1;jettySize=auto;html=1;startArrow=none;startFill=0;endArrow=block;endFill=0;entryX=0.514;entryY=0.986;entryDx=0;entryDy=0;entryPerimeter=0;" edge="1" parent="WIyWlLk6GJQsqaUBKTNV-1" source="w5kWeoBQfcNdfBbSgqj2-81" target="w5kWeoBQfcNdfBbSgqj2-67">
          <mxGeometry relative="1" as="geometry" />
        </mxCell>
        <mxCell id="w5kWeoBQfcNdfBbSgqj2-92" style="edgeStyle=orthogonalEdgeStyle;rounded=0;orthogonalLoop=1;jettySize=auto;html=1;entryX=0.463;entryY=1.012;entryDx=0;entryDy=0;entryPerimeter=0;startArrow=none;startFill=0;endArrow=block;endFill=0;" edge="1" parent="WIyWlLk6GJQsqaUBKTNV-1" source="w5kWeoBQfcNdfBbSgqj2-88" target="w5kWeoBQfcNdfBbSgqj2-66">
          <mxGeometry relative="1" as="geometry" />
        </mxCell>
        <mxCell id="w5kWeoBQfcNdfBbSgqj2-93" style="edgeStyle=orthogonalEdgeStyle;rounded=0;orthogonalLoop=1;jettySize=auto;html=1;entryX=0;entryY=0.25;entryDx=0;entryDy=0;startArrow=diamond;startFill=0;endArrow=classic;endFill=1;" edge="1" parent="WIyWlLk6GJQsqaUBKTNV-1" source="w5kWeoBQfcNdfBbSgqj2-88" target="w5kWeoBQfcNdfBbSgqj2-81">
          <mxGeometry relative="1" as="geometry">
            <Array as="points">
              <mxPoint x="180" y="1310" />
              <mxPoint x="180" y="1610" />
            </Array>
          </mxGeometry>
        </mxCell>
        <mxCell id="w5kWeoBQfcNdfBbSgqj2-88" value="Concrete Player" style="swimlane;fontStyle=0;align=center;verticalAlign=top;childLayout=stackLayout;horizontal=1;startSize=26;horizontalStack=0;resizeParent=1;resizeLast=0;collapsible=1;marginBottom=0;rounded=0;shadow=0;strokeWidth=1;" vertex="1" parent="WIyWlLk6GJQsqaUBKTNV-1">
          <mxGeometry x="230" y="1290" width="240" height="40" as="geometry">
            <mxRectangle x="1450" y="610" width="170" height="26" as="alternateBounds" />
          </mxGeometry>
        </mxCell>
        <mxCell id="w5kWeoBQfcNdfBbSgqj2-90" value="" style="line;html=1;strokeWidth=1;align=left;verticalAlign=middle;spacingTop=-1;spacingLeft=3;spacingRight=3;rotatable=0;labelPosition=right;points=[];portConstraint=eastwest;" vertex="1" parent="w5kWeoBQfcNdfBbSgqj2-88">
          <mxGeometry y="26" width="240" height="14" as="geometry" />
        </mxCell>
        <mxCell id="w5kWeoBQfcNdfBbSgqj2-101" style="edgeStyle=orthogonalEdgeStyle;rounded=0;orthogonalLoop=1;jettySize=auto;html=1;startArrow=none;startFill=0;endArrow=block;endFill=0;" edge="1" parent="WIyWlLk6GJQsqaUBKTNV-1" source="w5kWeoBQfcNdfBbSgqj2-98">
          <mxGeometry relative="1" as="geometry">
            <mxPoint x="710" y="1380" as="targetPoint" />
          </mxGeometry>
        </mxCell>
        <mxCell id="w5kWeoBQfcNdfBbSgqj2-102" style="edgeStyle=orthogonalEdgeStyle;rounded=0;orthogonalLoop=1;jettySize=auto;html=1;entryX=0;entryY=0.5;entryDx=0;entryDy=0;startArrow=diamond;startFill=0;endArrow=classic;endFill=1;" edge="1" parent="WIyWlLk6GJQsqaUBKTNV-1" source="w5kWeoBQfcNdfBbSgqj2-98" target="w5kWeoBQfcNdfBbSgqj2-81">
          <mxGeometry relative="1" as="geometry">
            <Array as="points">
              <mxPoint x="510" y="1450" />
              <mxPoint x="510" y="1620" />
            </Array>
          </mxGeometry>
        </mxCell>
        <mxCell id="w5kWeoBQfcNdfBbSgqj2-98" value="Concrete Environment" style="swimlane;fontStyle=0;align=center;verticalAlign=top;childLayout=stackLayout;horizontal=1;startSize=26;horizontalStack=0;resizeParent=1;resizeLast=0;collapsible=1;marginBottom=0;rounded=0;shadow=0;strokeWidth=1;" vertex="1" parent="WIyWlLk6GJQsqaUBKTNV-1">
          <mxGeometry x="550" y="1430" width="240" height="40" as="geometry">
            <mxRectangle x="1450" y="610" width="170" height="26" as="alternateBounds" />
          </mxGeometry>
        </mxCell>
        <mxCell id="w5kWeoBQfcNdfBbSgqj2-99" value="" style="line;html=1;strokeWidth=1;align=left;verticalAlign=middle;spacingTop=-1;spacingLeft=3;spacingRight=3;rotatable=0;labelPosition=right;points=[];portConstraint=eastwest;" vertex="1" parent="w5kWeoBQfcNdfBbSgqj2-98">
          <mxGeometry y="26" width="240" height="14" as="geometry" />
        </mxCell>
      </root>
    </mxGraphModel>
  </diagram>
</mxfile>
